<?xml version="1.0" encoding="utf-8"?>
<!-- Generator: Adobe Illustrator 27.2.0, SVG Export Plug-In . SVG Version: 6.00 Build 0)  -->
<svg version="1.1" id="Layer_1" xmlns="http://www.w3.org/2000/svg" xmlns:xlink="http://www.w3.org/1999/xlink" x="0px" y="0px"
	 viewBox="0 0 1200 588.77" style="enable-background:new 0 0 1200 588.77;" xml:space="preserve">
<style type="text/css">
	
		.st0{clip-path:url(#SVGID_00000007410411322441562710000010776357305127211963_);fill-rule:evenodd;clip-rule:evenodd;fill:#F5911D;}
	
		.st1{clip-path:url(#SVGID_00000007410411322441562710000010776357305127211963_);fill-rule:evenodd;clip-rule:evenodd;fill:#F5921E;}
	
		.st2{clip-path:url(#SVGID_00000007410411322441562710000010776357305127211963_);fill-rule:evenodd;clip-rule:evenodd;fill:#545454;}
</style>
<g>
	<defs>
		<rect id="SVGID_1_" x="48.77" y="22.98" width="1102.46" height="540.91"/>
	</defs>
	<clipPath id="SVGID_00000080904183320910243710000010943526056880977286_">
		<use xlink:href="#SVGID_1_"  style="overflow:visible;"/>
	</clipPath>
	
		<path style="clip-path:url(#SVGID_00000080904183320910243710000010943526056880977286_);fill-rule:evenodd;clip-rule:evenodd;fill:#F5911D;" d="
		M251.2,222.03c57.63,0.33,104.52,47.73,103.66,105.28c-0.85,56.7-46.53,102.52-103.84,102.76c-57.49,0.24-105.1-46.4-104.08-106
		C147.92,267.55,193.44,222.27,251.2,222.03 M278.59,309.32c-0.07-0.27-0.15-0.4-0.12-0.45c0.5-0.81,1.04-1.59,1.53-2.41
		c3.25-5.46,3.14-11.12,0.72-16.79c-2.75-6.42-7.11-11.1-14.35-12.27c-3.7-0.6-7.44-0.55-11.15,0.03c-2.16,0.34-4.28,0.96-6.43,1.38
		c-2.26,0.45-2.86,0.1-3.74-2.02c-0.18-0.44-0.34-0.89-0.51-1.34c-1.46-3.84-2.89-7.69-4.39-11.52c-0.85-2.16-1.3-2.31-3.46-1.48
		c-1.43,0.54-2.84,1.12-4.28,1.64c-4.04,1.45-4.07,1.54-2.51,5.46c1.52,3.82,3.03,7.64,4.49,11.48c0.71,1.86,0.47,2.27-1.38,3.01
		c-1.5,0.61-3.02,1.2-4.53,1.8c-1.86,0.74-2.18,0.61-3.04-1.27c-0.2-0.44-0.34-0.89-0.52-1.34c-1.44-3.74-2.88-7.49-4.33-11.23
		c-1.11-2.86-1.25-2.89-4.19-1.72c-1.59,0.64-3.2,1.25-4.81,1.84c-2.86,1.04-2.91,1.13-1.75,4.12c1.59,4.1,3.21,8.18,4.79,12.28
		c0.85,2.2,0.58,2.84-1.57,3.77c-1.23,0.53-2.49,0.96-3.74,1.44c-4.55,1.74-9.11,3.45-13.65,5.22c-1.95,0.76-2.06,1.08-1.34,2.98
		c0.92,2.41,1.84,4.82,2.81,7.21c0.8,1.93,1.08,2.05,3,1.27c2.3-0.95,4.6-1.89,7.02-2.47c3.43-0.82,5.71,0.28,7.21,3.5
		c0.32,0.69,0.59,1.41,0.86,2.13c5.12,13.28,10.24,26.56,15.35,39.85c0.79,2.05,1.62,4.09,2.29,6.18c0.88,2.76,0.19,4.37-2.37,5.68
		c-1.36,0.7-2.78,1.28-4.2,1.84c-3.8,1.5-3.8,1.48-3,5.38c0.52,2.53,0.96,5.07,1.54,7.58c0.39,1.7,0.75,1.84,2.42,1.31
		c0.55-0.17,1.06-0.43,1.6-0.63c5.17-1.99,10.34-3.98,15.51-5.96c2.78-1.06,3.1-0.9,4.2,1.93c1.66,4.27,3.31,8.55,5.01,12.81
		c0.86,2.17,1.03,2.22,3.13,1.42c1.52-0.57,3.01-1.21,4.55-1.75c4.02-1.41,4.01-1.4,2.39-5.46c-1.55-3.91-3.09-7.82-4.55-11.77
		c-0.75-2.01-0.49-2.37,1.56-3.14c1.43-0.54,2.84-1.12,4.26-1.67c1.82-0.7,2.29-0.52,3.11,1.26c0.24,0.52,0.41,1.07,0.61,1.61
		c1.56,4.11,3.1,8.23,4.7,12.32c0.65,1.68,0.98,1.81,2.55,1.24c2.33-0.85,4.64-1.76,6.96-2.63c1.28-0.48,1.86-1.29,1.33-2.67
		c-0.27-0.71-0.51-1.44-0.79-2.15c-1.51-3.92-3.07-7.83-4.56-11.76c-0.82-2.17-0.65-2.51,1.43-3.56c0.34-0.17,0.7-0.31,1.04-0.48
		c5.12-2.62,10.16-5.37,14.37-9.35c4.8-4.54,7.52-10.06,7.56-16.76c0.02-4.39-1.25-8.46-2.9-12.47c-3.43-8.3-9.69-12.21-18.55-12.24
		C280.72,309.54,279.58,309.77,278.59,309.32"/>
	
		<path style="clip-path:url(#SVGID_00000080904183320910243710000010943526056880977286_);fill-rule:evenodd;clip-rule:evenodd;fill:#F5921E;" d="
		M123.72,259.98c-1.3-2.08-2.61-4.11-3.85-6.18c-1.5-2.5-2.91-5.05-4.41-7.55c-0.53-0.87-0.67-1.4,0.06-2.4
		c3.18-4.34,6.38-8.62,9.91-12.69c2.56-2.94,4.99-6,7.8-8.7c9.64-9.25,20.13-17.38,31.81-23.93c13.43-7.54,27.64-13.14,42.48-17.12
		c11.44-3.08,23.09-4.76,34.97-5.04c8.34-0.19,16.63,0.28,24.87,1.51c11.56,1.72,22.71,5.03,33.56,9.31
		c11.15,4.4,21.73,9.94,31.74,16.55c10.96,7.25,20.77,15.87,29.54,25.61c7.71,8.57,14.26,18,19.79,28.17
		c7.3,13.42,12.44,27.57,15.9,42.42c2.75,11.79,4.19,23.72,4.17,35.8c-0.02,11.48-1.28,22.83-3.99,34.05
		c-3.18,13.18-7.92,25.73-14.12,37.72c-5.6,10.83-12.41,20.86-20.43,30.1c-9.2,10.59-19.75,19.57-31.43,27.24
		c-4.51,2.96-9.1,5.81-14.08,8.04c-2.25-3.39-4.12-6.87-5.65-10.5c-0.5-1.18-2.22-1.87-1.62-3.41c0.48-1.22,1.97-1.38,2.99-1.98
		c4.36-2.52,8.65-5.11,12.74-8.05c3.32-2.39,6.57-4.86,9.71-7.5c2.98-2.52,5.73-5.27,8.51-7.98c7.71-7.52,14.21-16.04,19.83-25.17
		c3.19-5.18,6.15-10.54,8.53-16.23c3.62-8.68,6.43-17.56,8.86-26.64c4.07-15.18,4.51-30.52,3.17-46c-0.34-3.9-0.76-7.85-1.75-11.62
		c-1.33-5.1-2.5-10.24-4.05-15.29c-1.49-4.82-3.45-9.43-5.16-14.15c-0.96-2.64-2.58-5.02-3.77-7.59c-2.5-5.4-5.57-10.47-8.84-15.43
		c-5.62-8.52-12.27-16.15-19.66-23.17c-2.82-2.68-5.52-5.53-8.6-7.87c-5.33-4.05-10.71-8.05-16.55-11.37
		c-7.38-4.18-14.94-8.07-22.88-10.96c-6.7-2.44-13.55-4.56-20.62-5.98c-7.45-1.49-14.89-2.78-22.49-3.03
		c-7.83-0.26-15.57,0.29-23.37,1.33c-9.81,1.3-19.32,3.63-28.69,6.58c-6.12,1.93-12.06,4.43-17.84,7.3
		c-6.64,3.3-13.04,6.94-19.09,11.22c-4.91,3.48-9.42,7.4-13.86,11.44c-5.87,5.35-10.9,11.38-15.69,17.65
		c-2.3,3.01-4.53,6.09-6.44,9.37C125.26,258.67,124.86,259.52,123.72,259.98"/>
	
		<path style="clip-path:url(#SVGID_00000080904183320910243710000010943526056880977286_);fill-rule:evenodd;clip-rule:evenodd;fill:#F5921E;" d="
		M246.57,132.32c5.71-0.13,13.44,0.38,21.11,1.37c11.93,1.55,23.68,3.96,35.2,7.55c28.16,8.79,53.42,22.79,75.76,42.03
		c20.28,17.46,36.22,38.26,47.6,62.52c7.07,15.06,11.74,30.88,15.38,47.08c3.97,17.68,5.26,35.54,4.29,53.57
		c-0.83,15.57-3.69,30.81-8.25,45.73c-1.47,4.81-3.15,9.53-4.75,14.29c-0.48,1.41-0.99,1.36-2.26,1.04
		c-3.93-0.99-7.49-3.03-11.42-3.93c-1.28-0.29-1.44-0.84-1.39-1.93c0.08-1.74,0.84-3.26,1.41-4.82c2.45-6.82,4.57-13.72,6.25-20.78
		c1.63-6.84,3.36-13.65,4.2-20.66c1.53-12.77,1.82-25.55,0.49-38.35c-0.57-5.52-1.15-11.05-2.47-16.44
		c-1.53-6.19-3.12-12.38-4.86-18.52c-1.87-6.56-4.25-12.92-6.82-19.19c-2.45-5.98-5.15-11.87-8.34-17.54
		c-3.56-6.33-7.25-12.55-11.39-18.51c-3.89-5.61-8.26-10.83-12.71-16c-2.8-3.26-5.76-6.35-8.86-9.3
		c-4.26-4.05-8.73-7.87-13.23-11.65c-6.88-5.77-14.29-10.78-21.96-15.35c-8.77-5.23-17.82-10-27.48-13.54
		c-4.05-1.49-8-3.33-12.15-4.54c-7.5-2.19-15.06-4.21-22.76-5.63c-16.63-3.06-33.34-3.62-50.17-1.88
		c-15.21,1.58-29.96,5.02-44.36,10.07c-5.53,1.94-10.88,4.3-16.24,6.67c-10.26,4.55-19.85,10.22-29.04,16.6
		c-5.32,3.69-10.39,7.68-15.31,11.9c-5.82,4.99-11.13,10.48-16.42,16c-1.91,1.99-3.56,4.22-5.35,6.32c-1.22,1.42-1.74,1.35-2.7-0.3
		c-2.34-3.97-4.66-7.94-7.05-11.87c-0.39-0.64-0.33-0.99,0.11-1.47c5.27-5.64,10.31-11.48,16.29-16.44c2.82-2.34,5.5-4.87,8.37-7.18
		c3.21-2.58,6.51-5.02,9.79-7.49c3.88-2.92,7.85-5.7,11.96-8.24c7.8-4.83,15.82-9.25,24.21-13.04c12.93-5.84,26.26-10.37,40.1-13.45
		C215.55,133.87,229.94,132.32,246.57,132.32"/>
	
		<path style="clip-path:url(#SVGID_00000080904183320910243710000010943526056880977286_);fill-rule:evenodd;clip-rule:evenodd;fill:#F5921E;" d="
		M477.72,256.91c-4.6,1.35-8.97,2.62-13.32,3.94c-0.62,0.19-0.86,0.05-1.04-0.48c-0.12-0.36-0.25-0.72-0.38-1.08
		c-3.62-9.94-7.57-19.71-12.24-29.23c-10.09-20.51-23.02-38.96-39.1-55.18c-11-11.09-22.86-21.21-35.67-30.18
		c-7.48-5.25-15.19-10.15-23.24-14.49c-11.34-6.11-23.04-11.43-35.29-15.39c-7.4-2.39-14.91-4.46-22.54-6.06
		c-5.46-1.15-10.99-1.93-16.5-2.87c-15.21-2.6-30.49-3.03-45.84-2.26c-6.49,0.32-12.99,0.75-19.42,1.75
		c-5.67,0.88-11.36,1.62-16.98,2.78c-7.05,1.46-14.03,3.12-20.92,5.2c-5.53,1.66-11.01,3.45-16.39,5.55
		c-6.33,2.47-12.54,5.21-18.61,8.27c-11.11,5.6-21.73,12.02-31.62,19.59c-0.08,0.06-0.16,0.11-0.24,0.16
		c-2.65,1.94-2.58,1.91-4.09-1.06c-1.19-2.34-2.54-4.62-3.92-6.86c-0.46-0.75-0.63-1.6-1.1-2.3c-0.78-1.14-0.09-1.83,0.71-2.36
		c5.01-3.32,10-6.68,15.1-9.86c25.76-16.03,53.52-26.86,83.39-32.36c19-3.5,38.15-4.79,57.4-3.76
		c41.87,2.23,81.01,13.8,117.04,35.42c10.52,6.31,20.53,13.38,29.92,21.32c6.71,5.68,13.3,11.46,19.32,17.87
		c11.83,12.57,22.47,26.06,31.44,40.84c3.75,6.17,7.31,12.44,10.51,18.9c4.55,9.18,8.56,18.59,11.81,28.31
		C476.55,252.92,477.6,254.66,477.72,256.91"/>
	
		<path style="clip-path:url(#SVGID_00000080904183320910243710000010943526056880977286_);fill-rule:evenodd;clip-rule:evenodd;fill:#F5921E;" d="
		M426.03,333.25c-0.14,11.74-1.58,24.49-4.43,37.13c-2.53,11.22-5.85,22.16-10.07,32.83c-3.35,8.46-7.29,16.65-11.76,24.6
		c-4.2,7.47-8.9,14.58-14.06,21.41c-5.61,7.42-12.02,14.09-18.79,20.42c-8.36,7.8-17.62,14.42-27.51,20.17
		c-5.34,3.11-10.89,5.78-16.46,8.43c-4.61,2.19-9.42,3.9-14.21,5.64c-2.22,0.81-2.44,0.55-3.22-1.7c-1.38-3.93-2.74-7.87-4.29-11.73
		c-0.5-1.24-0.4-1.56,0.89-1.94c8.17-2.4,16.02-5.61,23.56-9.6c7.34-3.89,14.24-8.43,20.85-13.46c4.83-3.68,9.37-7.7,13.61-12.01
		c6.04-6.15,11.76-12.58,16.7-19.71c3.39-4.89,6.42-9.96,9.53-15.01c3.08-5,5.53-10.31,7.73-15.69c3.91-9.53,7.27-19.26,9.67-29.33
		c1.44-6.05,3.16-12.02,4.04-18.19c2.6-18.24,2.61-36.45-1.47-54.46c-1.74-7.66-3.85-15.3-6.89-22.6
		c-2.56-6.14-5.14-12.25-8.39-18.1c-3.8-6.85-7.92-13.48-12.52-19.8c-3.39-4.65-6.86-9.25-10.82-13.45c-1.96-2.08-3.9-4.2-5.72-6.4
		c-1.17-1.42-0.99-1.81,0.4-2.97c2.24-1.87,4.44-3.78,6.65-5.68c0.22-0.19,0.41-0.4,0.62-0.6c3.36-3.15,3.43-3.22,6.49,0.17
		c5.87,6.5,11.39,13.29,16.47,20.43c6.36,8.91,11.98,18.24,16.73,28.11c5.99,12.43,10.44,25.36,13.27,38.89
		C424.91,309.98,425.97,320.95,426.03,333.25"/>
	
		<path style="clip-path:url(#SVGID_00000080904183320910243710000010943526056880977286_);fill-rule:evenodd;clip-rule:evenodd;fill:#F5921E;" d="
		M245.19,65.73c9.67-0.16,19.32,0.27,28.92,1.35c15.27,1.72,30.3,4.64,45.11,8.83c19.49,5.52,38.08,13.2,55.84,22.85
		c12.79,6.94,24.91,14.94,36.37,23.94c5.47,4.3,10.71,8.85,15.99,13.37c0.51,0.43,0.98,0.91,1.46,1.37
		c0.49,0.46,0.57,0.91,0.08,1.46c-2.71,3.08-5.4,6.17-8.08,9.26c-0.91,1.05-1.76,1.28-2.86,0.16c-0.99-1.01-2.21-1.8-3.24-2.77
		c-6.32-5.9-13.15-11.17-20.15-16.24c-5.58-4.04-11.38-7.74-17.18-11.46c-21.78-13.95-45.49-23.29-70.44-29.64
		c-15.22-3.87-30.71-6.13-46.4-7.09c-15.89-0.97-31.74-0.5-47.52,1.46c-28.99,3.61-56.57,11.97-82.6,25.31
		c-10.14,5.2-19.87,11.07-29.21,17.59c-1.64,1.14-3.29,2.27-4.92,3.43c-1.01,0.73-1.71,0.81-2.5-0.44c-2.02-3.18-4.25-6.23-6.3-9.39
		c-1.08-1.65-0.92-2.12,0.68-3.25c9.71-6.91,19.73-13.31,30.23-18.96c14.96-8.05,30.6-14.43,46.8-19.49
		c11.98-3.73,24.17-6.51,36.54-8.47c11.99-1.91,24.06-3.07,36.23-3.2C240.41,65.71,242.8,65.73,245.19,65.73"/>
	
		<path style="clip-path:url(#SVGID_00000080904183320910243710000010943526056880977286_);fill-rule:evenodd;clip-rule:evenodd;fill:#F5921E;" d="
		M453.72,298.24c-1.7,0.36-1.84-0.4-2.07-1.34c-1.2-4.88-2.5-9.74-3.72-14.62c-1.45-5.86-3.33-11.61-5.4-17.24
		c-3.88-10.59-8.7-20.76-14.34-30.58c-5.59-9.73-11.75-19.03-18.52-27.95c-3-3.95-6.32-7.64-9.52-11.43
		c-4.52-5.35-9.35-10.35-14.47-15.07c-5.66-5.21-11.49-10.18-17.87-14.57c-4.99-3.43-9.8-7.14-15.09-10.1
		c-5.6-3.14-11.15-6.34-17.1-8.87c-3.38-1.43-6.68-3.21-10.14-4.5c-4.88-1.82-9.87-3.32-14.81-4.96c-7.52-2.5-15.21-4.34-22.98-5.89
		c-8.07-1.61-16.18-2.91-24.36-3.79c-2.36-0.26-2.44-0.32-2.24-2.64c0.36-4.29,0.8-8.57,1.23-12.86c0.17-1.65,0.55-1.93,2.23-1.63
		c7.65,1.34,15.3,2.65,22.9,4.31c11.59,2.53,23,5.65,34.17,9.59c27.93,9.85,53.1,24.4,74.82,44.66
		c20.48,19.09,37.4,40.89,49.87,66.05c7.72,15.59,13.35,31.91,17.53,48.76c0.94,3.78,1.64,7.61,2.51,11.4
		c0.31,1.32-0.03,1.96-1.43,2.09C461.02,297.44,457.12,297.88,453.72,298.24"/>
	
		<path style="clip-path:url(#SVGID_00000080904183320910243710000010943526056880977286_);fill-rule:evenodd;clip-rule:evenodd;fill:#F5921E;" d="
		M1111.85,281.1c-4.34,0-8.68-0.02-13.02-0.02c-1.99,0-3.98,0.01-5.97,0.03c-1.81,0.02-2.64,0.12-3.35-1.61
		c-1.27-3.1-4.9-5.65-7.82-7.03c-4.05-1.91-8.25-1.88-12.62-1.47c-7.68,0.72-16.44,2.49-22.03,8.27c-1.29,1.33-2.23,2.86-3.26,4.39
		c-1.23,1.84-2.51,3.65-3.46,5.66c-1.79,3.8-2.46,8.01-2.12,12.19c0.57,7.1,3.43,14.4,8.48,19.52c5.21,5.28,12.74,8.36,20.16,8.14
		c8.44-0.25,16.96-3.6,23.57-8.79c2.83-2.23,5.4-4.87,6.29-8.48c-0.72-0.57-1.61-0.34-2.44-0.34c-1.15,0-2.3,0.01-3.44,0.01
		c-2.49,0.01-4.97,0.02-7.46,0.03c-4.78,0.02-9.57,0.05-14.35,0.07c-2.3,0.01-4.59,0.02-6.89,0.03c-0.76,0-3.29,0.45-3.84-0.4
		c-0.64-0.99-0.23-3.11-0.24-4.19c-0.01-2.43-0.01-4.86,0-7.29c0-0.99-0.42-3.26,0.28-4.14c0.67-0.84,3.38-0.4,4.25-0.41
		c9.48-0.16,18.95-0.31,28.43-0.35c4.79-0.02,9.57-0.03,14.35-0.05c2.11-0.01,4.22-0.04,6.33-0.04c1.98,0,1.4,2.51,1.41,3.89
		c0.03,4.26-0.08,8.56-1.04,12.73c-0.92,3.98-2.72,7.71-4.87,11.16c-4.17,6.7-10.03,11.98-16.75,16.06
		c-7.41,4.5-15.95,6.99-24.64,6.99c-8.9-0.01-16.92-2.96-24.03-8.22c-6.68-4.94-11.76-11.16-15.39-18.64
		c-3.85-7.95-4.52-16.44-3.76-25.15c0.73-8.45,4.54-16.92,9.7-23.64c4.69-6.11,11.8-10.6,19.05-13.05
		c5.75-1.94,11.75-2.58,17.79-2.74c5.96-0.15,11.68-0.07,17.35,2.02c5.33,1.98,10.49,5.21,14.32,9.43c2.01,2.21,3.61,4.72,5.3,7.17
		C1108.01,275.59,1109.94,278.34,1111.85,281.1"/>
	
		<path style="clip-path:url(#SVGID_00000080904183320910243710000010943526056880977286_);fill-rule:evenodd;clip-rule:evenodd;fill:#545454;" d="
		M568.4,174.21v-40.76c0-0.76,0.01-1.53,0.02-2.3c0-0.7,0.37-1.05,1.05-1.07c0.48-0.02,0.96-0.02,1.44-0.02
		c11.48-0.05,22.97-0.43,34.44-0.06c12.23,0.39,21.65,6.07,27.38,17.08c4.35,8.35,2.71,16.18-2.82,23.44
		c-0.35,0.45-0.79,0.84-1.15,1.29c-0.6,0.77-0.57,1.39,0.19,2.19c2.43,2.55,4.5,5.35,6.11,8.55c4.43,8.82,2.17,18.49-3.5,25.35
		c-3.84,4.65-8.62,8.02-14.55,9.62c-2.24,0.6-4.49,0.91-6.78,0.91c-13.01,0.03-26.03,0.02-39.05,0.01c-2.76,0-2.78-0.03-2.78-2.89
		C568.4,201.77,568.4,187.99,568.4,174.21 M598.53,202.01v-0.09c3.44,0,6.88-0.03,10.33,0.02c1.93,0.03,3.83-0.14,5.68-0.63
		c3.14-0.82,5.59-2.52,6.49-5.82c0.6-2.16,0.55-4.38-0.03-6.52c-0.69-2.55-2.34-4.35-4.81-5.33c-1.88-0.75-3.86-1.18-5.87-1.19
		c-8.03-0.05-16.07-0.01-24.1-0.06c-1.33-0.01-1.86,0.35-1.84,1.77c0.06,5.35,0.09,10.71-0.01,16.06c-0.03,1.7,0.8,1.82,2.11,1.81
		C590.49,201.98,594.51,202.01,598.53,202.01 M596.95,165.83v-0.07c3.44,0,6.88,0.05,10.31-0.02c2.72-0.06,5.26-0.84,7.64-2.17
		c5.57-3.13,6.24-9.34,1.42-13.53c-2.23-1.94-4.9-2.94-7.8-3.29c-7.52-0.92-15.08-0.21-22.62-0.44c-1.4-0.04-1.51,0.76-1.5,1.83
		c0.02,5.25,0.05,10.51-0.02,15.76c-0.02,1.5,0.48,1.99,1.96,1.96C589.87,165.77,593.41,165.83,596.95,165.83"/>
	
		<path style="clip-path:url(#SVGID_00000080904183320910243710000010943526056880977286_);fill-rule:evenodd;clip-rule:evenodd;fill:#F5921E;" d="
		M783.72,434.72c11.4,10.5,18.11,24.36,25.5,38.36h-5.43c-3.92,0-7.85-0.02-11.77,0.01c-1.27,0.01-2-0.43-2.66-1.63
		c-3.81-6.93-8.46-13.22-14.28-18.63c-4.96-4.61-9.95-9.22-14.6-14.13c-2.34-2.47-4.94-1.9-7.63-1.91
		c-0.57-0.01-0.83,0.41-0.85,0.94c-0.03,0.76-0.04,1.53-0.04,2.3c0,9.76,0,19.52,0,29.27c0,0.77-0.01,1.53-0.04,2.3
		c-0.04,0.78-0.43,1.24-1.26,1.24c-4.5-0.01-8.99-0.01-13.49-0.02c-0.67,0-1.07-0.32-1.1-1.01c-0.03-0.67-0.05-1.34-0.05-2.01
		c0-27.46,0-54.91,0-82.36c0-3.31-0.26-3.11,3.09-3.11c9.95-0.01,19.9,0.07,29.84-0.04c3.92-0.05,7.84-0.25,11.74,0.23
		c6.88,0.84,13.14,3.18,17.92,8.39c4.92,5.35,7.3,11.8,6.77,19.08c-0.47,6.29-4.15,10.93-8.77,14.83
		c-3.56,3.01-7.55,5.38-11.96,6.97C784.32,433.89,783.87,433.91,783.72,434.72 M766.72,400.72c-4.81,0-8.73-0.02-12.64,0.01
		c-2.17,0.02-2.21,0.05-2.23,2.27c-0.04,4.97-0.03,9.94,0,14.91c0.01,2.25,0.05,2.25,2.2,2.23c5.63-0.07,11.27-0.11,16.9-0.24
		c4.94-0.1,9.72-1,13.92-3.76c4.4-2.9,4.67-4.52,3.79-9.75c-0.37-2.15-1.79-3.56-3.77-4.36c-1.15-0.46-2.36-0.71-3.6-0.9
		C776.16,400.35,770.98,400.92,766.72,400.72"/>
	
		<path style="clip-path:url(#SVGID_00000080904183320910243710000010943526056880977286_);fill-rule:evenodd;clip-rule:evenodd;fill:#F5921E;" d="
		M754.14,291.74v3.69v45.92c0,0.48,0,0.96,0,1.43c-0.02,2.8-0.02,2.81-2.82,2.81c-3.73,0.01-7.46-0.04-11.19,0.03
		c-1.33,0.02-1.99-0.38-1.83-1.79c0.05-0.47,0.01-0.95,0.01-1.43c0-27.36-0.01-54.72,0.01-82.08c0-3.67-0.4-3.21,3.16-3.26
		c0.19,0,0.39,0,0.58,0c2.58,0.03,5.42-0.61,7.67,0.27c2.12,0.83,3.05,3.7,4.53,5.64c7.62,9.96,15.13,20.01,22.72,29.99
		c4.31,5.68,8.72,11.29,13.09,16.93c0.22,0.29,0.39,0.65,1.17,0.68c0-0.79,0-1.6,0-2.41c0.03-15.97,0.06-31.95,0.09-47.92
		c0-0.67,0.02-1.34,0.01-2.01c-0.01-0.86,0.46-1.16,1.26-1.16c4.5,0.01,8.99,0.01,13.49,0c0.81,0,1.25,0.33,1.23,1.18
		c-0.01,0.67,0.01,1.34,0.01,2.01c-0.03,27.45-0.06,54.91-0.09,82.36c0,0.48-0.03,0.96,0,1.43c0.08,1.08-0.38,1.57-1.49,1.55
		c-3.15-0.03-6.31-0.06-9.47,0.02c-1.27,0.03-1.96-0.7-2.55-1.55c-6.49-9.4-13.77-18.2-20.57-27.36
		c-4.49-6.05-9.19-11.96-13.61-18.07C757.98,296.49,756.38,294.3,754.14,291.74"/>
	
		<path style="clip-path:url(#SVGID_00000080904183320910243710000010943526056880977286_);fill-rule:evenodd;clip-rule:evenodd;fill:#F5921E;" d="
		M962.03,292.12v2.77v46.81c0,0.76-0.05,1.53,0,2.3c0.09,1.29-0.57,1.63-1.74,1.62c-4.11-0.04-8.23-0.06-12.35,0.01
		c-1.42,0.02-1.9-0.53-1.76-1.86c0.05-0.47,0.01-0.96,0.01-1.44c0-27.37-0.01-54.74,0-82.12c0-3.48-0.33-3.16,3-3.13
		c2.96,0.02,5.92-0.2,8.88,0.15c1.7,2.3,3.38,4.6,5.09,6.88c9.22,12.22,18.43,24.44,27.67,36.63c2.53,3.33,5.15,6.59,8.01,10.25
		c0.42-1.75,0.34-3.13,0.34-4.5c0.01-15.41,0-30.82,0.01-46.23c0-3.56-0.36-3.17,3.26-3.18c3.63-0.02,7.27,0.04,10.91-0.03
		c1.34-0.02,2,0.37,1.83,1.78c-0.06,0.47-0.01,0.96-0.01,1.43c0,27.38,0,54.75,0,82.12c0,3.5,0.38,3.21-3.25,3.22
		c-2.39,0.01-4.79-0.02-7.18,0.01c-1.19,0.01-1.95-0.26-2.8-1.4c-6.89-9.23-13.94-18.34-20.92-27.5
		c-5.89-7.73-11.74-15.49-17.59-23.24c-0.33-0.44-0.61-0.92-0.91-1.39C962.38,292.09,962.2,292.11,962.03,292.12"/>
	
		<path style="clip-path:url(#SVGID_00000080904183320910243710000010943526056880977286_);fill-rule:evenodd;clip-rule:evenodd;fill:#F5921E;" d="
		M997.98,165.08v3.12c0,15.41,0,30.81,0,46.21c0,0.76-0.03,1.53,0,2.29c0.06,1.18-0.4,1.74-1.65,1.73c-4.12-0.04-8.23-0.03-12.34,0
		c-1.28,0.01-2.01-0.43-1.93-1.82c0.03-0.57,0-1.15,0-1.72c0-27.17-0.01-54.35,0-81.52c0-3.41-0.49-3.49,3.37-3.48
		c2.29,0.01,4.59,0.05,6.89-0.02c1.18-0.04,1.84,0.44,2.54,1.39c8.76,11.71,17.57,23.39,26.41,35.04
		c4.19,5.53,8.49,10.99,12.75,16.47c0.23,0.3,0.49,0.56,0.84,0.96c0.57-0.77,0.35-1.54,0.35-2.23c0.01-15.79,0.01-31.58,0.01-47.36
		c0-0.58,0-1.15,0-1.72c0.04-2.48,0.04-2.5,2.54-2.52c3.83-0.02,7.66,0.03,11.48-0.02c1.44-0.02,2.06,0.48,2.02,1.99
		c-0.09,3.44-0.09,6.89-0.09,10.33c-0.01,24.02,0,48.03,0,72.05c0,0.57,0.01,1.15,0,1.72c-0.04,2.48-0.04,2.49-2.55,2.51
		c-2.68,0.01-5.36-0.06-8.04,0.03c-1.17,0.04-1.9-0.31-2.61-1.27c-5.58-7.48-11.21-14.92-16.84-22.38
		c-5.79-7.67-11.51-15.4-17.41-22.99C1001.93,169.6,1000.2,167.27,997.98,165.08"/>
	
		<path style="clip-path:url(#SVGID_00000080904183320910243710000010943526056880977286_);fill-rule:evenodd;clip-rule:evenodd;fill:#F5921E;" d="
		M822.46,301.59v-41.6c0-0.57,0.01-1.14,0.01-1.72c0-0.82,0.38-1.23,1.23-1.2c0.67,0.02,1.34,0,2,0c10.72,0,21.43,0.11,32.14-0.03
		c11.78-0.15,20.98,4.92,27.83,14.07c9.03,12.06,11.96,25.73,8.95,40.53c-1.91,9.42-5.98,17.84-12.98,24.56
		c-6.34,6.07-13.78,9.59-22.83,9.45c-10.99-0.18-22-0.04-33-0.04c-0.67,0-1.34-0.03-2.01,0c-1.11,0.06-1.56-0.46-1.5-1.54
		c0.04-0.67,0-1.34,0-2.01v-40.46H822.46z M838.32,301.35c0,8.33-0.01,16.65,0,24.98c0.01,2.71,0.03,2.74,2.61,2.74
		c5.84,0.02,11.67,0.03,17.51-0.01c1.81-0.01,3.62-0.08,5.4-0.55c6.63-1.78,10.87-6.22,13.45-12.32c3.06-7.25,3.41-14.83,2.09-22.53
		c-0.64-3.71-1.84-7.23-3.85-10.43c-3.89-6.19-9.34-9.68-16.84-9.6c-5.84,0.06-11.67,0.01-17.51,0.01c-3.21,0-2.86-0.08-2.87,3.03
		C838.32,284.89,838.32,293.12,838.32,301.35"/>
	
		<path style="clip-path:url(#SVGID_00000080904183320910243710000010943526056880977286_);fill-rule:evenodd;clip-rule:evenodd;fill:#F5911D;" d="
		M656.27,301.28v-40.77c0-0.67,0.04-1.34,0-2.01c-0.08-1.17,0.52-1.51,1.57-1.44c0.57,0.03,1.15,0,1.72,0c20.1,0,40.2-0.01,60.3,0
		c3.45,0,3.11-0.4,3.12,3.02c0.02,3.83,0.03,7.65-0.01,11.48c-0.02,2-0.06,2.05-2.11,2.06c-7.27,0.02-14.55,0.01-21.82,0.01
		c-8.13,0-16.27-0.01-24.4,0.01c-2.32,0.01-2.35,0.04-2.36,2.36c-0.02,4.98-0.02,9.95,0,14.93c0.01,2.17,0.05,2.21,2.24,2.21
		c11.01,0.01,22.02,0,33.02,0.01c3.6,0,3.18-0.22,3.2,3.28c0.02,3.45,0.01,6.89,0,10.34c0,2.88-0.01,2.89-3.02,2.9
		c-10.53,0-21.06,0-31.58,0c-0.67,0-1.34,0.04-2.01-0.01c-1.29-0.09-1.91,0.32-1.89,1.77c0.06,5.36,0.05,10.72,0.01,16.08
		c-0.01,1.23,0.44,1.76,1.67,1.68c0.67-0.04,1.34,0,2.01,0c14.64,0,29.29,0,43.93,0c3.36,0,3.11-0.21,3.12,3.09
		c0.01,3.83-0.04,7.66,0.02,11.49c0.02,1.33-0.36,2-1.78,1.83c-0.47-0.05-0.96,0-1.44,0c-20.1,0-40.2,0-60.3,0
		c-3.61,0-3.21,0.26-3.22-3.25C656.26,328.65,656.27,314.96,656.27,301.28"/>
	
		<path style="clip-path:url(#SVGID_00000080904183320910243710000010943526056880977286_);fill-rule:evenodd;clip-rule:evenodd;fill:#545454;" d="
		M648.65,472.91c-5.52,0-10.78-0.03-16.04,0.03c-1.25,0.02-2.03-0.4-2.33-1.58c-0.79-3.05-2.59-5.63-3.96-8.4
		c-1.05-2.12-1.76-4.37-2.79-6.49c-0.5-1.03-1.13-1.55-2.41-1.54c-12.15,0.06-24.29,0.05-36.44,0.01c-1.47-0.01-2.23,0.58-2.82,1.86
		c-2.24,4.81-4.58,9.57-6.82,14.37c-0.54,1.15-1.14,1.79-2.55,1.77c-5.16-0.08-10.32-0.03-15.59-0.03
		c-0.11-2.06,1.03-3.61,1.69-5.28c2.36-5.89,4.77-11.75,7.3-17.56c1.28-2.92,2.68-5.77,3.7-8.79c1.39-4.09,4-7.59,5.63-11.56
		c2.61-6.36,5.96-12.37,8.75-18.64c2.79-6.28,6.02-12.35,8.97-18.56c1.12-2.37,1.97-4.87,3.3-7.16c0.52-0.91,1.08-1.38,2.2-1.33
		c2.48,0.09,4.98,0.14,7.46-0.01c1.98-0.12,3.04,0.48,3.89,2.41c2.71,6.15,5.66,12.19,8.56,18.26c4.57,9.58,9.23,19.12,13.72,28.75
		c5.19,11.14,9.91,22.48,14.48,33.89C647.24,469.08,648.26,470.69,648.65,472.91 M602.89,412.86c-4.17,8.88-8.25,16.99-11.96,25.38
		h24.04C610.95,429.8,607.07,421.65,602.89,412.86"/>
	
		<path style="clip-path:url(#SVGID_00000080904183320910243710000010943526056880977286_);fill-rule:evenodd;clip-rule:evenodd;fill:#F5921E;" d="
		M928.34,472.91c1.85-4.52,3.55-8.55,5.16-12.61c2.34-5.9,5.04-11.65,7.39-17.54c1.17-2.95,2.46-5.92,3.98-8.71
		c2.88-5.3,5.21-10.86,7.79-16.29c2.9-6.11,5.87-12.2,8.74-18.33c2.14-4.59,4.09-9.29,6.56-13.74c0.66-1.18,1.32-1.68,2.64-1.65
		c2.58,0.08,5.17,0.13,7.75-0.01c1.59-0.09,2.35,0.48,3.01,1.91c3.38,7.32,6.87,14.59,10.33,21.87c4.07,8.57,8.23,17.09,12.24,25.69
		c5.81,12.44,10.96,25.17,16.16,37.87c0.15,0.36,0.32,0.7,0.15,1.06c-0.06,0.41-0.4,0.45-0.66,0.45c-5.07,0.02-10.14,0-15.21,0.06
		c-1.12,0.01-1.94-0.41-2.16-1.4c-0.55-2.45-2.07-4.42-3.07-6.64c-1.19-2.66-2.42-5.31-3.58-7.98c-0.6-1.37-1.46-1.99-3.06-1.98
		c-11.96,0.06-23.92,0.06-35.87-0.01c-1.62-0.01-2.34,0.64-2.97,2.01c-2.19,4.73-4.56,9.38-6.71,14.13
		c-0.66,1.45-1.47,1.91-3.01,1.88C938.88,472.85,933.82,472.91,928.34,472.91 M963.07,438.29h23.75
		c-4.05-8.52-7.94-16.72-11.91-25.06C973.19,415.7,963.61,436,963.07,438.29"/>
	
		<path style="clip-path:url(#SVGID_00000080904183320910243710000010943526056880977286_);fill-rule:evenodd;clip-rule:evenodd;fill:#F5921E;" d="
		M846.68,176.16c-0.07-6.46,0.28-12.93,2.91-18.89c2.13-4.8,4.78-9.31,8.47-13.28c3.87-4.16,8.03-7.83,13.16-10.13
		c11.57-5.18,23.31-5.69,34.88,0.06c13.42,6.68,21.41,17.63,24.09,32.28c2.83,15.44-1.74,28.72-12.53,39.96
		c-5.62,5.85-12.38,9.75-20.3,11.44c-6.13,1.3-12.28,1.09-18.42-0.3c-8.34-1.89-15.13-6.35-20.76-12.58
		c-3.33-3.69-6.08-7.8-8.05-12.5c-1.23-2.94-2.16-5.93-2.91-8.97C846.64,180.99,846.83,178.53,846.68,176.16 M915.36,173.96
		c0.08-2.03-0.16-4.5-0.7-6.93c-1.89-8.45-6.48-14.84-14.54-18.36c-4.82-2.11-9.89-2.7-15.14-1.96c-6.29,0.89-11.71,3.42-15.95,8.2
		c-4.73,5.33-6.64,11.72-6.76,18.73c-0.25,14.53,8.29,26.17,22.78,28.03c9.9,1.27,21.22-2.19,26.95-12.89
		C914.39,184.31,915.39,179.49,915.36,173.96"/>
	
		<path style="clip-path:url(#SVGID_00000080904183320910243710000010943526056880977286_);fill-rule:evenodd;clip-rule:evenodd;fill:#F5921E;" d="
		M930.29,441.19c-0.69,2.51-2.06,4.12-3.01,5.94c-1.49,2.86-3.1,5.65-4.7,8.45c-2.92,5.14-7.48,8.55-12.4,11.55
		c-4.08,2.49-8.57,4.21-13.19,5.07c-3.79,0.7-7.75,0.77-11.7,0.46c-6.06-0.49-11.64-2.29-16.64-5.58
		c-6.12-4.03-11.03-9.29-14.43-15.89c-1.72-3.34-3.43-6.72-4.26-10.37c-1.26-5.57-1.62-11.25-1.23-16.99
		c0.53-7.82,3.25-14.84,7.43-21.32c4.04-6.26,9.34-11.27,16.13-14.49c7.57-3.59,15.45-4.65,23.78-3.05
		c6.28,1.21,11.94,3.63,17.22,7.11c4.3,2.83,7.58,6.6,10.01,11.11c2.12,3.93,4.16,7.89,6.22,11.84c0.11,0.22,0.04,0.54,0.07,1.09
		h-9.15c-2.39,0-4.78-0.05-7.17,0.02c-1.51,0.04-2.44-0.54-3.19-1.87c-3.62-6.43-8.85-10.43-16.1-12.73
		c-8.24-2.61-21.22,1.94-25.83,10.92c-5.18,10.1-5.49,20.42-0.81,30.55c3.78,8.2,10.7,12.6,19.85,13.22
		c5.48,0.37,10.68-0.71,15.02-4.02c3.27-2.5,6.43-5.36,8.29-9.22c0.51-1.05,1.07-1.81,2.28-1.81
		C918.52,441.18,924.25,441.19,930.29,441.19"/>
	
		<path style="clip-path:url(#SVGID_00000080904183320910243710000010943526056880977286_);fill-rule:evenodd;clip-rule:evenodd;fill:#F5921E;" d="
		M841.33,187.21c-1.39,2.55-2.74,5.02-4.1,7.48c-1.14,2.08-2.24,4.18-3.46,6.21c-4.3,7.19-10.93,11.52-18.43,14.66
		c-5.63,2.36-11.57,3.1-17.63,2.84c-11.55-0.5-20.64-5.63-27.86-14.58c-4.38-5.43-7.54-11.37-9.05-18.16
		c-1.19-5.33-1.4-10.71-1.09-16.16c0.44-7.83,3.23-14.81,7.4-21.29c3.77-5.86,8.69-10.67,14.84-13.93
		c8.41-4.46,17.41-5.58,26.71-3.38c6.04,1.43,11.63,3.89,16.64,7.66c3.1,2.33,5.74,5.04,7.74,8.3c2.82,4.6,5.15,9.48,7.5,14.25
		c-0.37,0.85-1.02,0.59-1.53,0.59c-4.97,0.02-9.95,0-14.92,0.03c-1.3,0.01-2.16-0.2-2.89-1.57c-2.65-4.91-6.39-8.79-11.46-11.32
		c-5.64-2.82-11.4-3.15-17.38-1.29c-9.07,2.82-13.98,9.31-16.15,18.19c-2.01,8.16-1.43,16.16,2.44,23.67
		c7.01,13.62,24.12,15.95,34.71,8.3c3.33-2.41,6.43-5.41,8.25-9.33c0.52-1.12,1.26-1.62,2.41-1.62c5.45,0,10.9,0.01,16.36,0.04
		C840.6,186.81,840.85,187,841.33,187.21"/>
	
		<path style="clip-path:url(#SVGID_00000080904183320910243710000010943526056880977286_);fill-rule:evenodd;clip-rule:evenodd;fill:#545454;" d="
		M643.9,257.06c-1.53,4.03-2.79,7.7-4.28,11.25c-4.99,11.88-10.06,23.72-15.1,35.59c-5.18,12.2-10.37,24.41-15.52,36.62
		c-2.13,5.05-2.09,5.07-7.54,5.07c-1.72,0-3.45-0.06-5.17,0.02c-1.62,0.08-2.43-0.81-2.99-2.14c-2.18-5.16-4.44-10.29-6.52-15.48
		c-2.06-5.12-4.47-10.08-6.48-15.22c-1.83-4.7-4.1-9.22-6.09-13.86c-1.99-4.64-3.83-9.34-5.81-13.98c-1.4-3.27-3.06-6.43-4.36-9.73
		c-2.31-5.89-5.14-11.58-6.86-17.63c0.61-0.74,1.32-0.5,1.95-0.5c4.4-0.02,8.81,0.06,13.2-0.05c1.55-0.04,2.36,0.41,2.99,1.87
		c2.68,6.18,5.51,12.29,8.25,18.44c2.5,5.63,4.9,11.3,7.41,16.93c2.74,6.14,5.55,12.25,8.33,18.37c0.31,0.68,0.45,1.46,1.16,1.84
		c0.89,0.08,0.91-0.71,1.06-1.14c1.08-3.1,2.68-5.97,3.95-8.98c1.67-3.97,3.47-7.89,5.08-11.89c1.01-2.51,2.14-5,3.3-7.46
		c2.04-4.32,3.86-8.73,5.81-13.08c2.02-4.53,3.8-9.18,6.18-13.56c0.48-0.88,0.99-1.3,1.96-1.3
		C632.99,257.07,638.15,257.06,643.9,257.06"/>
	
		<path style="clip-path:url(#SVGID_00000080904183320910243710000010943526056880977286_);fill-rule:evenodd;clip-rule:evenodd;fill:#F5921E;" d="
		M660.86,428.47V388c0-0.67,0.04-1.34-0.01-2.01c-0.09-1.31,0.4-1.99,1.79-1.88c0.57,0.04,1.15,0,1.72,0h52.8
		c0.48,0,0.96-0.01,1.44,0c2.14,0.07,2.19,0.08,2.21,2.33c0.04,3.92,0.03,7.84,0.01,11.76c-0.01,2.46-0.04,2.5-2.56,2.5
		c-12.53,0.01-25.06-0.01-37.59,0.01c-4.32,0.01-3.79-0.58-3.81,3.8c-0.03,4.21-0.02,8.42,0,12.62c0.02,3.39-0.31,2.99,3.15,2.99
		c8.9,0.02,17.79,0.01,26.69,0.01c0.67,0,1.34,0.02,2.01,0c1-0.04,1.33,0.48,1.32,1.4c-0.02,2.29,0,4.59,0,6.89
		c0,2.2-0.06,4.4,0.02,6.6c0.06,1.41-0.51,1.8-1.85,1.79c-5.74-0.06-11.48-0.02-17.22-0.02c-4.02,0-8.04-0.02-12.05,0.01
		c-2.01,0.02-2.06,0.05-2.06,2.06c-0.02,10.14,0,20.28-0.01,30.42c0,4.07,0.48,3.58-3.73,3.61c-3.25,0.02-6.51,0.02-9.76,0
		c-2.47-0.01-2.5-0.03-2.5-2.54c-0.01-13.3,0-26.59,0-39.89V428.47z"/>
	
		<path style="clip-path:url(#SVGID_00000080904183320910243710000010943526056880977286_);fill-rule:evenodd;clip-rule:evenodd;fill:#F5921E;" d="
		M705.66,182.11v-32.13c0-0.67-0.04-1.34,0.01-2.01c0.09-1.24-0.45-1.7-1.68-1.67c-2.77,0.05-5.55,0.02-8.32,0.02
		c-4.97,0-9.95,0.02-14.92-0.01c-2.01-0.01-2.06-0.06-2.07-2.08c-0.03-4.11,0.04-8.23-0.03-12.34c-0.03-1.5,0.5-2.11,1.98-1.99
		c0.66,0.06,1.34,0.01,2.01,0.01h63.41c0.48,0,0.96-0.01,1.44,0c2.46,0.04,2.49,0.04,2.5,2.55c0.02,3.92,0.03,7.84,0,11.76
		c-0.02,2.02-0.06,2.07-2.06,2.08c-7.17,0.02-14.35,0.01-21.52,0.01c-0.67,0-1.34,0.02-2.01,0.01c-0.72-0.01-1.03,0.39-1.04,1.05
		c-0.02,0.77-0.02,1.53-0.02,2.3c0,21.42,0,42.85,0,64.27c0,0.77,0.02,1.53-0.01,2.3c-0.09,2.04-0.14,2.16-2.11,2.18
		c-4.4,0.05-8.8,0.04-13.2,0.01c-2.29-0.01-2.33-0.05-2.33-2.46c-0.02-8.23-0.01-16.45-0.01-24.68V182.11z"/>
	
		<path style="clip-path:url(#SVGID_00000080904183320910243710000010943526056880977286_);fill-rule:evenodd;clip-rule:evenodd;fill:#F5921E;" d="
		M244.15,41.68c8.91-0.12,17.79,0.55,26.64,1.29c4.36,0.36,8.7,1.04,13.04,1.62c2.1,0.28,2.35,0.58,2.1,2.79
		c-0.47,4.18-1.07,8.35-1.54,12.53c-0.15,1.35-0.5,1.95-2.09,1.87c-2.38-0.12-4.65-0.79-7-1.02c-18.13-1.76-36.29-2-54.44-0.52
		c-6.54,0.53-13.05,1.52-19.55,2.54c-9.66,1.51-19.16,3.58-28.6,5.99c-5.05,1.28-9.99,3.01-14.98,4.53
		c-2.17,0.66-2.13,0.65-2.73-1.59c-1.02-3.85-2.04-7.7-3.15-11.53c-0.39-1.36-0.14-1.93,1.3-2.43c12.77-4.41,25.67-8.3,38.95-10.94
		C209.31,43.39,226.65,41.78,244.15,41.68"/>
	
		<path style="clip-path:url(#SVGID_00000080904183320910243710000010943526056880977286_);fill-rule:evenodd;clip-rule:evenodd;fill:#F5921E;" d="
		M820.17,428.49c0-13.77,0-27.54,0-41.31c0-3.52-0.06-3.12,3.08-3.13c3.63-0.01,7.27,0.04,10.9-0.02c1.37-0.02,1.93,0.49,1.8,1.84
		c-0.05,0.57-0.01,1.15-0.01,1.72v81.75c0,0.67-0.03,1.34,0,2.01c0.05,1.07-0.38,1.56-1.49,1.56c-4.3-0.03-8.61-0.02-12.91,0
		c-0.98,0-1.38-0.45-1.36-1.39c0.01-0.67-0.01-1.34-0.01-2.01V428.49z"/>
	
		<path style="clip-path:url(#SVGID_00000080904183320910243710000010943526056880977286_);fill-rule:evenodd;clip-rule:evenodd;fill:#F5911D;" d="
		M668.33,174.06v40.46c0,0.67-0.06,1.34,0.01,2.01c0.15,1.57-0.62,1.96-2.05,1.93c-3.92-0.07-7.84-0.07-11.76,0
		c-1.39,0.02-1.91-0.52-1.79-1.85c0.05-0.57,0.01-1.15,0.01-1.72c0-27.17-0.01-54.33,0-81.5c0-3.89-0.43-3.45,3.58-3.47
		c3.16-0.02,6.32-0.02,9.47,0c2.5,0.02,2.53,0.04,2.53,2.54c0.01,10.9,0.01,21.81,0.01,32.71V174.06z"/>
	
		<path style="clip-path:url(#SVGID_00000080904183320910243710000010943526056880977286_);fill-rule:evenodd;clip-rule:evenodd;fill:#F5911D;" d="
		M946.86,174.04v-39.89c0-0.58-0.01-1.15,0-1.72c0.03-2.48,0.04-2.51,2.55-2.52c3.73-0.02,7.46,0.03,11.19-0.02
		c1.3-0.02,2.01,0.35,1.86,1.78c-0.06,0.57-0.01,1.15-0.01,1.72c0,27.17,0,54.33-0.01,81.5c0,4.06,0.3,3.5-3.52,3.54
		c-3.06,0.03-6.12,0.02-9.18,0.01c-2.86-0.01-2.88-0.02-2.88-2.79c-0.01-6.6,0-13.2,0-19.8V174.04z"/>
	
		<path style="clip-path:url(#SVGID_00000080904183320910243710000010943526056880977286_);fill-rule:evenodd;clip-rule:evenodd;fill:#F5921E;" d="
		M926.61,301.59v40.15c0,0.67-0.05,1.34,0,2c0.11,1.32-0.39,1.89-1.78,1.87c-4.01-0.06-8.03-0.06-12.04,0.01
		c-1.4,0.02-1.91-0.54-1.78-1.86c0.04-0.47,0-0.95,0-1.43c0-27.34,0-54.67,0.01-82.01c0-3.66-0.31-3.22,3.2-3.25
		c3.44-0.02,6.88-0.03,10.32,0.01c2,0.02,2.05,0.06,2.06,2.08c0.02,8.03,0.01,16.06,0.01,24.09V301.59z"/>
	
		<path style="clip-path:url(#SVGID_00000080904183320910243710000010943526056880977286_);fill-rule:evenodd;clip-rule:evenodd;fill:#F5921E;" d="
		M474.2,223.51c4.3-1.6,8.51-3.16,12.71-4.75c1.54-0.58,2.19,0.23,2.79,1.48c3.61,7.52,6.79,15.22,9.68,23.03
		c3.93,10.58,7.02,21.41,9.55,32.4c1.17,5.09,2.3,10.19,3.13,15.7c-4.94,1.05-9.98,1.12-14.91,1.93
		C492.43,269.04,485.32,245.72,474.2,223.51"/>
	
		<path style="clip-path:url(#SVGID_00000080904183320910243710000010943526056880977286_);fill-rule:evenodd;clip-rule:evenodd;fill:#F5921E;" d="
		M322.55,545.21c-1.41,0.03-1.7-0.99-1.97-1.85c-0.86-2.75-1.94-5.42-2.87-8.13c-0.43-1.23-2.09-2.54-1.06-3.79
		c0.72-0.89,2.36-1.02,3.58-1.51c11.83-4.79,23.27-10.32,34.14-17.05c6.17-3.82,12.23-7.77,17.91-12.29
		c2.79-2.21,2.8-2.17,4.48,0.96c1.66,3.09,3.36,6.15,5.06,9.22c0.96,1.74,0.95,2.01-0.77,3.24c-5.78,4.15-11.65,8.15-17.74,11.82
		c-6.33,3.81-12.78,7.42-19.46,10.55c-6.75,3.16-13.64,6.02-20.64,8.58C322.94,545.05,322.68,545.16,322.55,545.21"/>
	
		<path style="clip-path:url(#SVGID_00000080904183320910243710000010943526056880977286_);fill-rule:evenodd;clip-rule:evenodd;fill:#F5921E;" d="
		M267.57,325.54c2.17-0.18,3.77,0.16,5.32,0.61c6.79,1.97,9.59,10.71,5.27,16.32c-2.27,2.94-5.31,4.94-8.43,6.82
		c-4.44,2.68-9.28,4.49-14.12,6.28c-1.77,0.66-2.14,0.48-2.83-1.27c-2.55-6.49-5.06-13-7.54-19.52c-0.72-1.9-0.61-2.3,0.96-3.01
		c6.45-2.94,13.01-5.56,20.16-6.23C266.94,325.49,267.51,325.54,267.57,325.54"/>
	
		<path style="clip-path:url(#SVGID_00000080904183320910243710000010943526056880977286_);fill-rule:evenodd;clip-rule:evenodd;fill:#F5921E;" d="
		M250.7,293.82c6.09-0.07,10.64,3.61,11.3,9.16c0.27,2.29-0.34,4.35-1.61,6.24c-1.58,2.35-3.69,4.13-6.07,5.6
		c-3.92,2.42-8.19,4.08-12.49,5.7c-1.23,0.46-1.98,0.24-2.46-1.03c-2.34-6.16-4.71-12.31-7.1-18.45c-0.36-0.94-0.43-1.66,0.64-2.1
		C238.65,296.57,244.35,294.07,250.7,293.82"/>
</g>
</svg>
